<svg width="106" height="46" viewBox="0 0 106 46" fill="none" xmlns="http://www.w3.org/2000/svg">
<path d="M21.8438 34H1.98438V11.75H9.6875V28.3125H23.1875V32.8125L21.8438 34ZM42.0938 28.3125V17.4375H33.25V28.3125H42.0938ZM45.5625 34H29.7969L25.5469 30.25V15.5L29.7969 11.75H45.5625L49.7969 15.5V30.25L45.5625 34ZM76.6406 34H57.1719L52.9219 30.25V15.5L57.1719 11.75H75.9219V16.2656L74.5781 17.4375H60.625V28.3125H69.5781V25.4531H65.375V20.2969H76.6406V34ZM96.3125 28.3125V17.4375H87.4688V28.3125H96.3125ZM99.7812 34H84.0156L79.7656 30.25V15.5L84.0156 11.75H99.7812L104.016 15.5V30.25L99.7812 34Z" fill="white"/>
</svg>
