<svg width="151" height="151" viewBox="0 0 151 151" fill="none" xmlns="http://www.w3.org/2000/svg">
<path d="M0.25 0.25H6.25V6.25H0.25V0.25Z" fill="black"/>
<path d="M6.25 0.25H12.25V6.25H6.25V0.25Z" fill="black"/>
<path d="M12.25 0.25H18.25V6.25H12.25V0.25Z" fill="black"/>
<path d="M18.25 0.25H24.25V6.25H18.25V0.25Z" fill="black"/>
<path d="M24.25 0.25H30.25V6.25H24.25V0.25Z" fill="black"/>
<path d="M30.25 0.25H36.25V6.25H30.25V0.25Z" fill="black"/>
<path d="M36.25 0.25H42.25V6.25H36.25V0.25Z" fill="black"/>
<path d="M48.25 0.25H54.25V6.25H48.25V0.25Z" fill="black"/>
<path d="M54.25 0.25H60.25V6.25H54.25V0.25Z" fill="black"/>
<path d="M84.25 0.25H90.25V6.25H84.25V0.25Z" fill="black"/>
<path d="M90.25 0.25H96.25V6.25H90.25V0.25Z" fill="black"/>
<path d="M108.25 0.25H114.25V6.25H108.25V0.25Z" fill="black"/>
<path d="M114.25 0.25H120.25V6.25H114.25V0.25Z" fill="black"/>
<path d="M120.25 0.25H126.25V6.25H120.25V0.25Z" fill="black"/>
<path d="M126.25 0.25H132.25V6.25H126.25V0.25Z" fill="black"/>
<path d="M132.25 0.25H138.25V6.25H132.25V0.25Z" fill="black"/>
<path d="M138.25 0.25H144.25V6.25H138.25V0.25Z" fill="black"/>
<path d="M144.25 0.25H150.25V6.25H144.25V0.25Z" fill="black"/>
<path d="M0.25 6.25H6.25V12.25H0.25V6.25Z" fill="black"/>
<path d="M36.25 6.25H42.25V12.25H36.25V6.25Z" fill="black"/>
<path d="M54.25 6.25H60.25V12.25H54.25V6.25Z" fill="black"/>
<path d="M60.25 6.25H66.25V12.25H60.25V6.25Z" fill="black"/>
<path d="M66.25 6.25H72.25V12.25H66.25V6.25Z" fill="black"/>
<path d="M78.25 6.25H84.25V12.25H78.25V6.25Z" fill="black"/>
<path d="M84.25 6.25H90.25V12.25H84.25V6.25Z" fill="black"/>
<path d="M96.25 6.25H102.25V12.25H96.25V6.25Z" fill="black"/>
<path d="M108.25 6.25H114.25V12.25H108.25V6.25Z" fill="black"/>
<path d="M144.25 6.25H150.25V12.25H144.25V6.25Z" fill="black"/>
<path d="M0.25 12.25H6.25V18.25H0.25V12.25Z" fill="black"/>
<path d="M12.25 12.25H18.25V18.25H12.25V12.25Z" fill="black"/>
<path d="M18.25 12.25H24.25V18.25H18.25V12.25Z" fill="black"/>
<path d="M24.25 12.25H30.25V18.25H24.25V12.25Z" fill="black"/>
<path d="M36.25 12.25H42.25V18.25H36.25V12.25Z" fill="black"/>
<path d="M48.25 12.25H54.25V18.25H48.25V12.25Z" fill="black"/>
<path d="M78.25 12.25H84.25V18.25H78.25V12.25Z" fill="black"/>
<path d="M84.25 12.25H90.25V18.25H84.25V12.25Z" fill="black"/>
<path d="M90.25 12.25H96.25V18.25H90.25V12.25Z" fill="black"/>
<path d="M96.25 12.25H102.25V18.25H96.25V12.25Z" fill="black"/>
<path d="M108.25 12.25H114.25V18.25H108.25V12.25Z" fill="black"/>
<path d="M120.25 12.25H126.25V18.25H120.25V12.25Z" fill="black"/>
<path d="M126.25 12.25H132.25V18.25H126.25V12.25Z" fill="black"/>
<path d="M132.25 12.25H138.25V18.25H132.25V12.25Z" fill="black"/>
<path d="M144.25 12.25H150.25V18.25H144.25V12.25Z" fill="black"/>
<path d="M0.25 18.25H6.25V24.25H0.25V18.25Z" fill="black"/>
<path d="M12.25 18.25H18.25V24.25H12.25V18.25Z" fill="black"/>
<path d="M18.25 18.25H24.25V24.25H18.25V18.25Z" fill="black"/>
<path d="M24.25 18.25H30.25V24.25H24.25V18.25Z" fill="black"/>
<path d="M36.25 18.25H42.25V24.25H36.25V18.25Z" fill="black"/>
<path d="M60.25 18.25H66.25V24.25H60.25V18.25Z" fill="black"/>
<path d="M84.25 18.25H90.25V24.25H84.25V18.25Z" fill="black"/>
<path d="M90.25 18.25H96.25V24.25H90.25V18.25Z" fill="black"/>
<path d="M108.25 18.25H114.25V24.25H108.25V18.25Z" fill="black"/>
<path d="M120.25 18.25H126.25V24.25H120.25V18.25Z" fill="black"/>
<path d="M126.25 18.25H132.25V24.25H126.25V18.25Z" fill="black"/>
<path d="M132.25 18.25H138.25V24.25H132.25V18.25Z" fill="black"/>
<path d="M144.25 18.25H150.25V24.25H144.25V18.25Z" fill="black"/>
<path d="M0.25 24.25H6.25V30.25H0.25V24.25Z" fill="black"/>
<path d="M12.25 24.25H18.25V30.25H12.25V24.25Z" fill="black"/>
<path d="M18.25 24.25H24.25V30.25H18.25V24.25Z" fill="black"/>
<path d="M24.25 24.25H30.25V30.25H24.25V24.25Z" fill="black"/>
<path d="M36.25 24.25H42.25V30.25H36.25V24.25Z" fill="black"/>
<path d="M48.25 24.25H54.25V30.25H48.25V24.25Z" fill="black"/>
<path d="M66.25 24.25H72.25V30.25H66.25V24.25Z" fill="black"/>
<path d="M72.25 24.25H78.25V30.25H72.25V24.25Z" fill="black"/>
<path d="M96.25 24.25H102.25V30.25H96.25V24.25Z" fill="black"/>
<path d="M108.25 24.25H114.25V30.25H108.25V24.25Z" fill="black"/>
<path d="M120.25 24.25H126.25V30.25H120.25V24.25Z" fill="black"/>
<path d="M126.25 24.25H132.25V30.25H126.25V24.25Z" fill="black"/>
<path d="M132.25 24.25H138.25V30.25H132.25V24.25Z" fill="black"/>
<path d="M144.25 24.25H150.25V30.25H144.25V24.25Z" fill="black"/>
<path d="M0.25 30.25H6.25V36.25H0.25V30.25Z" fill="black"/>
<path d="M36.25 30.25H42.25V36.25H36.25V30.25Z" fill="black"/>
<path d="M54.25 30.25H60.25V36.25H54.25V30.25Z" fill="black"/>
<path d="M60.25 30.25H66.25V36.25H60.25V30.25Z" fill="black"/>
<path d="M66.25 30.25H72.25V36.25H66.25V30.25Z" fill="black"/>
<path d="M72.25 30.25H78.25V36.25H72.25V30.25Z" fill="black"/>
<path d="M78.25 30.25H84.25V36.25H78.25V30.25Z" fill="black"/>
<path d="M96.25 30.25H102.25V36.25H96.25V30.25Z" fill="black"/>
<path d="M108.25 30.25H114.25V36.25H108.25V30.25Z" fill="black"/>
<path d="M144.25 30.25H150.25V36.25H144.25V30.25Z" fill="black"/>
<path d="M0.25 36.25H6.25V42.25H0.25V36.25Z" fill="black"/>
<path d="M6.25 36.25H12.25V42.25H6.25V36.25Z" fill="black"/>
<path d="M12.25 36.25H18.25V42.25H12.25V36.25Z" fill="black"/>
<path d="M18.25 36.25H24.25V42.25H18.25V36.25Z" fill="black"/>
<path d="M24.25 36.25H30.25V42.25H24.25V36.25Z" fill="black"/>
<path d="M30.25 36.25H36.25V42.25H30.25V36.25Z" fill="black"/>
<path d="M36.25 36.25H42.25V42.25H36.25V36.25Z" fill="black"/>
<path d="M48.25 36.25H54.25V42.25H48.25V36.25Z" fill="black"/>
<path d="M60.25 36.25H66.25V42.25H60.25V36.25Z" fill="black"/>
<path d="M72.25 36.25H78.25V42.25H72.25V36.25Z" fill="black"/>
<path d="M84.25 36.25H90.25V42.25H84.25V36.25Z" fill="black"/>
<path d="M96.25 36.25H102.25V42.25H96.25V36.25Z" fill="black"/>
<path d="M108.25 36.25H114.25V42.25H108.25V36.25Z" fill="black"/>
<path d="M114.25 36.25H120.25V42.25H114.25V36.25Z" fill="black"/>
<path d="M120.25 36.25H126.25V42.25H120.25V36.25Z" fill="black"/>
<path d="M126.25 36.25H132.25V42.25H126.25V36.25Z" fill="black"/>
<path d="M132.25 36.25H138.25V42.25H132.25V36.25Z" fill="black"/>
<path d="M138.25 36.25H144.25V42.25H138.25V36.25Z" fill="black"/>
<path d="M144.25 36.25H150.25V42.25H144.25V36.25Z" fill="black"/>
<path d="M48.25 42.25H54.25V48.25H48.25V42.25Z" fill="black"/>
<path d="M54.25 42.25H60.25V48.25H54.25V42.25Z" fill="black"/>
<path d="M60.25 42.25H66.25V48.25H60.25V42.25Z" fill="black"/>
<path d="M66.25 42.25H72.25V48.25H66.25V42.25Z" fill="black"/>
<path d="M72.25 42.25H78.25V48.25H72.25V42.25Z" fill="black"/>
<path d="M30.25 48.25H36.25V54.25H30.25V48.25Z" fill="black"/>
<path d="M36.25 48.25H42.25V54.25H36.25V48.25Z" fill="black"/>
<path d="M66.25 48.25H72.25V54.25H66.25V48.25Z" fill="black"/>
<path d="M72.25 48.25H78.25V54.25H72.25V48.25Z" fill="black"/>
<path d="M78.25 48.25H84.25V54.25H78.25V48.25Z" fill="black"/>
<path d="M84.25 48.25H90.25V54.25H84.25V48.25Z" fill="black"/>
<path d="M96.25 48.25H102.25V54.25H96.25V48.25Z" fill="black"/>
<path d="M108.25 48.25H114.25V54.25H108.25V48.25Z" fill="black"/>
<path d="M120.25 48.25H126.25V54.25H120.25V48.25Z" fill="black"/>
<path d="M132.25 48.25H138.25V54.25H132.25V48.25Z" fill="black"/>
<path d="M144.25 48.25H150.25V54.25H144.25V48.25Z" fill="black"/>
<path d="M0.25 54.25H6.25V60.25H0.25V54.25Z" fill="black"/>
<path d="M18.25 54.25H24.25V60.25H18.25V54.25Z" fill="black"/>
<path d="M24.25 54.25H30.25V60.25H24.25V54.25Z" fill="black"/>
<path d="M42.25 54.25H48.25V60.25H42.25V54.25Z" fill="black"/>
<path d="M72.25 54.25H78.25V60.25H72.25V54.25Z" fill="black"/>
<path d="M78.25 54.25H84.25V60.25H78.25V54.25Z" fill="black"/>
<path d="M84.25 54.25H90.25V60.25H84.25V54.25Z" fill="black"/>
<path d="M96.25 54.25H102.25V60.25H96.25V54.25Z" fill="black"/>
<path d="M108.25 54.25H114.25V60.25H108.25V54.25Z" fill="black"/>
<path d="M114.25 54.25H120.25V60.25H114.25V54.25Z" fill="black"/>
<path d="M126.25 54.25H132.25V60.25H126.25V54.25Z" fill="black"/>
<path d="M132.25 54.25H138.25V60.25H132.25V54.25Z" fill="black"/>
<path d="M138.25 54.25H144.25V60.25H138.25V54.25Z" fill="black"/>
<path d="M6.25 60.25H12.25V66.25H6.25V60.25Z" fill="black"/>
<path d="M12.25 60.25H18.25V66.25H12.25V60.25Z" fill="black"/>
<path d="M18.25 60.25H24.25V66.25H18.25V60.25Z" fill="black"/>
<path d="M30.25 60.25H36.25V66.25H30.25V60.25Z" fill="black"/>
<path d="M36.25 60.25H42.25V66.25H36.25V60.25Z" fill="black"/>
<path d="M42.25 60.25H48.25V66.25H42.25V60.25Z" fill="black"/>
<path d="M60.25 60.25H66.25V66.25H60.25V60.25Z" fill="black"/>
<path d="M66.25 60.25H72.25V66.25H66.25V60.25Z" fill="black"/>
<path d="M78.25 60.25H84.25V66.25H78.25V60.25Z" fill="black"/>
<path d="M84.25 60.25H90.25V66.25H84.25V60.25Z" fill="black"/>
<path d="M90.25 60.25H96.25V66.25H90.25V60.25Z" fill="black"/>
<path d="M96.25 60.25H102.25V66.25H96.25V60.25Z" fill="black"/>
<path d="M108.25 60.25H114.25V66.25H108.25V60.25Z" fill="black"/>
<path d="M120.25 60.25H126.25V66.25H120.25V60.25Z" fill="black"/>
<path d="M126.25 60.25H132.25V66.25H126.25V60.25Z" fill="black"/>
<path d="M138.25 60.25H144.25V66.25H138.25V60.25Z" fill="black"/>
<path d="M144.25 60.25H150.25V66.25H144.25V60.25Z" fill="black"/>
<path d="M18.25 66.25H24.25V72.25H18.25V66.25Z" fill="black"/>
<path d="M90.25 66.25H96.25V72.25H90.25V66.25Z" fill="black"/>
<path d="M102.25 66.25H108.25V72.25H102.25V66.25Z" fill="black"/>
<path d="M108.25 66.25H114.25V72.25H108.25V66.25Z" fill="black"/>
<path d="M114.25 66.25H120.25V72.25H114.25V66.25Z" fill="black"/>
<path d="M120.25 66.25H126.25V72.25H120.25V66.25Z" fill="black"/>
<path d="M126.25 66.25H132.25V72.25H126.25V66.25Z" fill="black"/>
<path d="M138.25 66.25H144.25V72.25H138.25V66.25Z" fill="black"/>
<path d="M144.25 66.25H150.25V72.25H144.25V66.25Z" fill="black"/>
<path d="M6.25 72.25H12.25V78.25H6.25V72.25Z" fill="black"/>
<path d="M12.25 72.25H18.25V78.25H12.25V72.25Z" fill="black"/>
<path d="M30.25 72.25H36.25V78.25H30.25V72.25Z" fill="black"/>
<path d="M36.25 72.25H42.25V78.25H36.25V72.25Z" fill="black"/>
<path d="M42.25 72.25H48.25V78.25H42.25V72.25Z" fill="black"/>
<path d="M54.25 72.25H60.25V78.25H54.25V72.25Z" fill="black"/>
<path d="M60.25 72.25H66.25V78.25H60.25V72.25Z" fill="black"/>
<path d="M66.25 72.25H72.25V78.25H66.25V72.25Z" fill="black"/>
<path d="M84.25 72.25H90.25V78.25H84.25V72.25Z" fill="black"/>
<path d="M90.25 72.25H96.25V78.25H90.25V72.25Z" fill="black"/>
<path d="M102.25 72.25H108.25V78.25H102.25V72.25Z" fill="black"/>
<path d="M108.25 72.25H114.25V78.25H108.25V72.25Z" fill="black"/>
<path d="M114.25 72.25H120.25V78.25H114.25V72.25Z" fill="black"/>
<path d="M120.25 72.25H126.25V78.25H120.25V72.25Z" fill="black"/>
<path d="M126.25 72.25H132.25V78.25H126.25V72.25Z" fill="black"/>
<path d="M144.25 72.25H150.25V78.25H144.25V72.25Z" fill="black"/>
<path d="M0.25 78.25H6.25V84.25H0.25V78.25Z" fill="black"/>
<path d="M6.25 78.25H12.25V84.25H6.25V78.25Z" fill="black"/>
<path d="M18.25 78.25H24.25V84.25H18.25V78.25Z" fill="black"/>
<path d="M48.25 78.25H54.25V84.25H48.25V78.25Z" fill="black"/>
<path d="M54.25 78.25H60.25V84.25H54.25V78.25Z" fill="black"/>
<path d="M84.25 78.25H90.25V84.25H84.25V78.25Z" fill="black"/>
<path d="M102.25 78.25H108.25V84.25H102.25V78.25Z" fill="black"/>
<path d="M108.25 78.25H114.25V84.25H108.25V78.25Z" fill="black"/>
<path d="M0.25 84.25H6.25V90.25H0.25V84.25Z" fill="black"/>
<path d="M12.25 84.25H18.25V90.25H12.25V84.25Z" fill="black"/>
<path d="M18.25 84.25H24.25V90.25H18.25V84.25Z" fill="black"/>
<path d="M24.25 84.25H30.25V90.25H24.25V84.25Z" fill="black"/>
<path d="M36.25 84.25H42.25V90.25H36.25V84.25Z" fill="black"/>
<path d="M42.25 84.25H48.25V90.25H42.25V84.25Z" fill="black"/>
<path d="M48.25 84.25H54.25V90.25H48.25V84.25Z" fill="black"/>
<path d="M54.25 84.25H60.25V90.25H54.25V84.25Z" fill="black"/>
<path d="M66.25 84.25H72.25V90.25H66.25V84.25Z" fill="black"/>
<path d="M90.25 84.25H96.25V90.25H90.25V84.25Z" fill="black"/>
<path d="M96.25 84.25H102.25V90.25H96.25V84.25Z" fill="black"/>
<path d="M102.25 84.25H108.25V90.25H102.25V84.25Z" fill="black"/>
<path d="M114.25 84.25H120.25V90.25H114.25V84.25Z" fill="black"/>
<path d="M120.25 84.25H126.25V90.25H120.25V84.25Z" fill="black"/>
<path d="M138.25 84.25H144.25V90.25H138.25V84.25Z" fill="black"/>
<path d="M144.25 84.25H150.25V90.25H144.25V84.25Z" fill="black"/>
<path d="M0.25 90.25H6.25V96.25H0.25V90.25Z" fill="black"/>
<path d="M24.25 90.25H30.25V96.25H24.25V90.25Z" fill="black"/>
<path d="M42.25 90.25H48.25V96.25H42.25V90.25Z" fill="black"/>
<path d="M48.25 90.25H54.25V96.25H48.25V90.25Z" fill="black"/>
<path d="M60.25 90.25H66.25V96.25H60.25V90.25Z" fill="black"/>
<path d="M72.25 90.25H78.25V96.25H72.25V90.25Z" fill="black"/>
<path d="M78.25 90.25H84.25V96.25H78.25V90.25Z" fill="black"/>
<path d="M96.25 90.25H102.25V96.25H96.25V90.25Z" fill="black"/>
<path d="M120.25 90.25H126.25V96.25H120.25V90.25Z" fill="black"/>
<path d="M126.25 90.25H132.25V96.25H126.25V90.25Z" fill="black"/>
<path d="M132.25 90.25H138.25V96.25H132.25V90.25Z" fill="black"/>
<path d="M138.25 90.25H144.25V96.25H138.25V90.25Z" fill="black"/>
<path d="M144.25 90.25H150.25V96.25H144.25V90.25Z" fill="black"/>
<path d="M0.25 96.25H6.25V102.25H0.25V96.25Z" fill="black"/>
<path d="M12.25 96.25H18.25V102.25H12.25V96.25Z" fill="black"/>
<path d="M30.25 96.25H36.25V102.25H30.25V96.25Z" fill="black"/>
<path d="M36.25 96.25H42.25V102.25H36.25V96.25Z" fill="black"/>
<path d="M54.25 96.25H60.25V102.25H54.25V96.25Z" fill="black"/>
<path d="M66.25 96.25H72.25V102.25H66.25V96.25Z" fill="black"/>
<path d="M78.25 96.25H84.25V102.25H78.25V96.25Z" fill="black"/>
<path d="M84.25 96.25H90.25V102.25H84.25V96.25Z" fill="black"/>
<path d="M90.25 96.25H96.25V102.25H90.25V96.25Z" fill="black"/>
<path d="M96.25 96.25H102.25V102.25H96.25V96.25Z" fill="black"/>
<path d="M102.25 96.25H108.25V102.25H102.25V96.25Z" fill="black"/>
<path d="M108.25 96.25H114.25V102.25H108.25V96.25Z" fill="black"/>
<path d="M114.25 96.25H120.25V102.25H114.25V96.25Z" fill="black"/>
<path d="M120.25 96.25H126.25V102.25H120.25V96.25Z" fill="black"/>
<path d="M126.25 96.25H132.25V102.25H126.25V96.25Z" fill="black"/>
<path d="M132.25 96.25H138.25V102.25H132.25V96.25Z" fill="black"/>
<path d="M138.25 96.25H144.25V102.25H138.25V96.25Z" fill="black"/>
<path d="M48.25 102.25H54.25V108.25H48.25V102.25Z" fill="black"/>
<path d="M54.25 102.25H60.25V108.25H54.25V102.25Z" fill="black"/>
<path d="M60.25 102.25H66.25V108.25H60.25V102.25Z" fill="black"/>
<path d="M66.25 102.25H72.25V108.25H66.25V102.25Z" fill="black"/>
<path d="M72.25 102.25H78.25V108.25H72.25V102.25Z" fill="black"/>
<path d="M78.25 102.25H84.25V108.25H78.25V102.25Z" fill="black"/>
<path d="M96.25 102.25H102.25V108.25H96.25V102.25Z" fill="black"/>
<path d="M120.25 102.25H126.25V108.25H120.25V102.25Z" fill="black"/>
<path d="M126.25 102.25H132.25V108.25H126.25V102.25Z" fill="black"/>
<path d="M132.25 102.25H138.25V108.25H132.25V102.25Z" fill="black"/>
<path d="M0.25 108.25H6.25V114.25H0.25V108.25Z" fill="black"/>
<path d="M6.25 108.25H12.25V114.25H6.25V108.25Z" fill="black"/>
<path d="M12.25 108.25H18.25V114.25H12.25V108.25Z" fill="black"/>
<path d="M18.25 108.25H24.25V114.25H18.25V108.25Z" fill="black"/>
<path d="M24.25 108.25H30.25V114.25H24.25V108.25Z" fill="black"/>
<path d="M30.25 108.25H36.25V114.25H30.25V108.25Z" fill="black"/>
<path d="M36.25 108.25H42.25V114.25H36.25V108.25Z" fill="black"/>
<path d="M54.25 108.25H60.25V114.25H54.25V108.25Z" fill="black"/>
<path d="M66.25 108.25H72.25V114.25H66.25V108.25Z" fill="black"/>
<path d="M84.25 108.25H90.25V114.25H84.25V108.25Z" fill="black"/>
<path d="M90.25 108.25H96.25V114.25H90.25V108.25Z" fill="black"/>
<path d="M96.25 108.25H102.25V114.25H96.25V108.25Z" fill="black"/>
<path d="M108.25 108.25H114.25V114.25H108.25V108.25Z" fill="black"/>
<path d="M120.25 108.25H126.25V114.25H120.25V108.25Z" fill="black"/>
<path d="M126.25 108.25H132.25V114.25H126.25V108.25Z" fill="black"/>
<path d="M132.25 108.25H138.25V114.25H132.25V108.25Z" fill="black"/>
<path d="M144.25 108.25H150.25V114.25H144.25V108.25Z" fill="black"/>
<path d="M0.25 114.25H6.25V120.25H0.25V114.25Z" fill="black"/>
<path d="M36.25 114.25H42.25V120.25H36.25V114.25Z" fill="black"/>
<path d="M48.25 114.25H54.25V120.25H48.25V114.25Z" fill="black"/>
<path d="M66.25 114.25H72.25V120.25H66.25V114.25Z" fill="black"/>
<path d="M72.25 114.25H78.25V120.25H72.25V114.25Z" fill="black"/>
<path d="M84.25 114.25H90.25V120.25H84.25V114.25Z" fill="black"/>
<path d="M90.25 114.25H96.25V120.25H90.25V114.25Z" fill="black"/>
<path d="M96.25 114.25H102.25V120.25H96.25V114.25Z" fill="black"/>
<path d="M120.25 114.25H126.25V120.25H120.25V114.25Z" fill="black"/>
<path d="M126.25 114.25H132.25V120.25H126.25V114.25Z" fill="black"/>
<path d="M144.25 114.25H150.25V120.25H144.25V114.25Z" fill="black"/>
<path d="M0.25 120.25H6.25V126.25H0.25V120.25Z" fill="black"/>
<path d="M12.25 120.25H18.25V126.25H12.25V120.25Z" fill="black"/>
<path d="M18.25 120.25H24.25V126.25H18.25V120.25Z" fill="black"/>
<path d="M24.25 120.25H30.25V126.25H24.25V120.25Z" fill="black"/>
<path d="M36.25 120.25H42.25V126.25H36.25V120.25Z" fill="black"/>
<path d="M60.25 120.25H66.25V126.25H60.25V120.25Z" fill="black"/>
<path d="M66.25 120.25H72.25V126.25H66.25V120.25Z" fill="black"/>
<path d="M72.25 120.25H78.25V126.25H72.25V120.25Z" fill="black"/>
<path d="M84.25 120.25H90.25V126.25H84.25V120.25Z" fill="black"/>
<path d="M96.25 120.25H102.25V126.25H96.25V120.25Z" fill="black"/>
<path d="M102.25 120.25H108.25V126.25H102.25V120.25Z" fill="black"/>
<path d="M108.25 120.25H114.25V126.25H108.25V120.25Z" fill="black"/>
<path d="M114.25 120.25H120.25V126.25H114.25V120.25Z" fill="black"/>
<path d="M120.25 120.25H126.25V126.25H120.25V120.25Z" fill="black"/>
<path d="M126.25 120.25H132.25V126.25H126.25V120.25Z" fill="black"/>
<path d="M132.25 120.25H138.25V126.25H132.25V120.25Z" fill="black"/>
<path d="M0.25 126.25H6.25V132.25H0.25V126.25Z" fill="black"/>
<path d="M12.25 126.25H18.25V132.25H12.25V126.25Z" fill="black"/>
<path d="M18.25 126.25H24.25V132.25H18.25V126.25Z" fill="black"/>
<path d="M24.25 126.25H30.25V132.25H24.25V126.25Z" fill="black"/>
<path d="M36.25 126.25H42.25V132.25H36.25V126.25Z" fill="black"/>
<path d="M54.25 126.25H60.25V132.25H54.25V126.25Z" fill="black"/>
<path d="M66.25 126.25H72.25V132.25H66.25V126.25Z" fill="black"/>
<path d="M84.25 126.25H90.25V132.25H84.25V126.25Z" fill="black"/>
<path d="M102.25 126.25H108.25V132.25H102.25V126.25Z" fill="black"/>
<path d="M114.25 126.25H120.25V132.25H114.25V126.25Z" fill="black"/>
<path d="M132.25 126.25H138.25V132.25H132.25V126.25Z" fill="black"/>
<path d="M144.25 126.25H150.25V132.25H144.25V126.25Z" fill="black"/>
<path d="M0.25 132.25H6.25V138.25H0.25V132.25Z" fill="black"/>
<path d="M12.25 132.25H18.25V138.25H12.25V132.25Z" fill="black"/>
<path d="M18.25 132.25H24.25V138.25H18.25V132.25Z" fill="black"/>
<path d="M24.25 132.25H30.25V138.25H24.25V132.25Z" fill="black"/>
<path d="M36.25 132.25H42.25V138.25H36.25V132.25Z" fill="black"/>
<path d="M72.25 132.25H78.25V138.25H72.25V132.25Z" fill="black"/>
<path d="M96.25 132.25H102.25V138.25H96.25V132.25Z" fill="black"/>
<path d="M108.25 132.25H114.25V138.25H108.25V132.25Z" fill="black"/>
<path d="M114.25 132.25H120.25V138.25H114.25V132.25Z" fill="black"/>
<path d="M144.25 132.25H150.25V138.25H144.25V132.25Z" fill="black"/>
<path d="M0.25 138.25H6.25V144.25H0.25V138.25Z" fill="black"/>
<path d="M36.25 138.25H42.25V144.25H36.25V138.25Z" fill="black"/>
<path d="M54.25 138.25H60.25V144.25H54.25V138.25Z" fill="black"/>
<path d="M72.25 138.25H78.25V144.25H72.25V138.25Z" fill="black"/>
<path d="M78.25 138.25H84.25V144.25H78.25V138.25Z" fill="black"/>
<path d="M90.25 138.25H96.25V144.25H90.25V138.25Z" fill="black"/>
<path d="M108.25 138.25H114.25V144.25H108.25V138.25Z" fill="black"/>
<path d="M120.25 138.25H126.25V144.25H120.25V138.25Z" fill="black"/>
<path d="M126.25 138.25H132.25V144.25H126.25V138.25Z" fill="black"/>
<path d="M144.25 138.25H150.25V144.25H144.25V138.25Z" fill="black"/>
<path d="M0.25 144.25H6.25V150.25H0.25V144.25Z" fill="black"/>
<path d="M6.25 144.25H12.25V150.25H6.25V144.25Z" fill="black"/>
<path d="M12.25 144.25H18.25V150.25H12.25V144.25Z" fill="black"/>
<path d="M18.25 144.25H24.25V150.25H18.25V144.25Z" fill="black"/>
<path d="M24.25 144.25H30.25V150.25H24.25V144.25Z" fill="black"/>
<path d="M30.25 144.25H36.25V150.25H30.25V144.25Z" fill="black"/>
<path d="M36.25 144.25H42.25V150.25H36.25V144.25Z" fill="black"/>
<path d="M60.25 144.25H66.25V150.25H60.25V144.25Z" fill="black"/>
<path d="M90.25 144.25H96.25V150.25H90.25V144.25Z" fill="black"/>
<path d="M96.25 144.25H102.25V150.25H96.25V144.25Z" fill="black"/>
<path d="M108.25 144.25H114.25V150.25H108.25V144.25Z" fill="black"/>
<path d="M114.25 144.25H120.25V150.25H114.25V144.25Z" fill="black"/>
<path d="M120.25 144.25H126.25V150.25H120.25V144.25Z" fill="black"/>
<path d="M126.25 144.25H132.25V150.25H126.25V144.25Z" fill="black"/>
<path d="M144.25 144.25H150.25V150.25H144.25V144.25Z" fill="black"/>
<path d="M6.25 0.25H0.25V6.25M6.25 0.25V6.25M6.25 0.25H12.25M6.25 6.25H0.25M6.25 6.25H12.25M6.25 6.25V12.25M0.25 6.25V12.25M12.25 0.25V6.25M12.25 0.25H18.25M12.25 6.25H18.25M18.25 0.25V6.25M18.25 0.25H24.25M18.25 6.25H24.25M24.25 0.25V6.25M24.25 0.25H30.25M24.25 6.25H30.25M30.25 0.25V6.25M30.25 0.25H36.25M30.25 6.25H36.25M36.25 0.25V6.25M36.25 0.25H42.25V6.25M36.25 6.25H42.25M36.25 6.25V12.25M42.25 6.25V12.25M54.25 0.25H48.25V6.25H54.25M54.25 0.25V6.25M54.25 0.25H60.25V6.25M54.25 6.25H60.25M54.25 6.25V12.25M60.25 6.25V12.25M60.25 6.25H66.25M90.25 0.25H84.25V6.25M90.25 0.25V6.25M90.25 0.25H96.25V6.25M90.25 6.25H84.25M90.25 6.25H96.25M90.25 6.25V12.25M84.25 6.25H78.25V12.25M84.25 6.25V12.25M96.25 6.25H102.25V12.25M96.25 6.25V12.25M114.25 0.25H108.25V6.25M114.25 0.25V6.25M114.25 0.25H120.25M114.25 6.25H108.25M114.25 6.25H120.25M114.25 6.25V12.25M108.25 6.25V12.25M120.25 0.25V6.25M120.25 0.25H126.25M120.25 6.25H126.25M126.25 0.25V6.25M126.25 0.25H132.25M126.25 6.25H132.25M132.25 0.25V6.25M132.25 0.25H138.25M132.25 6.25H138.25M138.25 0.25V6.25M138.25 0.25H144.25M138.25 6.25H144.25M144.25 0.25V6.25M144.25 0.25H150.25V6.25M144.25 6.25H150.25M144.25 6.25V12.25M150.25 6.25V12.25M6.25 12.25H0.25M6.25 12.25V18.25M0.25 12.25V18.25M42.25 12.25H36.25M42.25 12.25V18.25M36.25 12.25V18.25M60.25 12.25H54.25M60.25 12.25H66.25M54.25 12.25H48.25V18.25H54.25V12.25ZM66.25 6.25V12.25M66.25 6.25H72.25V12.25H66.25M84.25 12.25H78.25M84.25 12.25H90.25M84.25 12.25V18.25M78.25 12.25V18.25H84.25M90.25 12.25V18.25M90.25 12.25H96.25M102.25 12.25H96.25M102.25 12.25V18.25H96.25M96.25 12.25V18.25M114.25 12.25H108.25M114.25 12.25V18.25M108.25 12.25V18.25M150.25 12.25H144.25M150.25 12.25V18.25M144.25 12.25V18.25M6.25 18.25H0.25M6.25 18.25V24.25M0.25 18.25V24.25M18.25 12.25H12.25V18.25M18.25 12.25V18.25M18.25 12.25H24.25M18.25 18.25H12.25M18.25 18.25H24.25M18.25 18.25V24.25M12.25 18.25V24.25M24.25 12.25V18.25M24.25 12.25H30.25V18.25M24.25 18.25H30.25M24.25 18.25V24.25M30.25 18.25V24.25M42.25 18.25H36.25M42.25 18.25V24.25M36.25 18.25V24.25M84.25 18.25H90.25M84.25 18.25V24.25H90.25M90.25 18.25H96.25M90.25 18.25V24.25M96.25 18.25V24.25M114.25 18.25H108.25M114.25 18.25V24.25M108.25 18.25V24.25M126.25 12.25H120.25V18.25M126.25 12.25V18.25M126.25 12.25H132.25M126.25 18.25H120.25M126.25 18.25H132.25M126.25 18.25V24.25M120.25 18.25V24.25M132.25 12.25V18.25M132.25 12.25H138.25V18.25M132.25 18.25H138.25M132.25 18.25V24.25M138.25 18.25V24.25M150.25 18.25H144.25M150.25 18.25V24.25M144.25 18.25V24.25M6.25 24.25H0.25M6.25 24.25V30.25M0.25 24.25V30.25M18.25 24.25H12.25M18.25 24.25H24.25M18.25 24.25V30.25M12.25 24.25V30.25H18.25M24.25 24.25H30.25M24.25 24.25V30.25M30.25 24.25V30.25H24.25M42.25 24.25H36.25M42.25 24.25V30.25M36.25 24.25V30.25M66.25 24.25V18.25H60.25V24.25H66.25ZM66.25 24.25H72.25M66.25 24.25V30.25M90.25 24.25H96.25M96.25 24.25H102.25V30.25M96.25 24.25V30.25M114.25 24.25H108.25M114.25 24.25V30.25M108.25 24.25V30.25M126.25 24.25H120.25M126.25 24.25H132.25M126.25 24.25V30.25M120.25 24.25V30.25H126.25M132.25 24.25H138.25M132.25 24.25V30.25M138.25 24.25V30.25H132.25M150.25 24.25H144.25M150.25 24.25V30.25M144.25 24.25V30.25M6.25 30.25H0.25M6.25 30.25V36.25M0.25 30.25V36.25M18.25 30.25H24.25M42.25 30.25H36.25M42.25 30.25V36.25M36.25 30.25V36.25M54.25 30.25V24.25H48.25V30.25H54.25ZM54.25 30.25H60.25M54.25 30.25V36.25M72.25 24.25V30.25M72.25 24.25H78.25V30.25M72.25 30.25H66.25M72.25 30.25H78.25M72.25 30.25V36.25M66.25 30.25H60.25M66.25 30.25V36.25M78.25 30.25V36.25M78.25 30.25H84.25V36.25M102.25 30.25H96.25M102.25 30.25V36.25M96.25 30.25V36.25M114.25 30.25H108.25M114.25 30.25V36.25M108.25 30.25V36.25M126.25 30.25H132.25M150.25 30.25H144.25M150.25 30.25V36.25M144.25 30.25V36.25M6.25 36.25H0.25M6.25 36.25V42.25M6.25 36.25H12.25M0.25 36.25V42.25H6.25M42.25 36.25H36.25M42.25 36.25V42.25H36.25M36.25 36.25H30.25M36.25 36.25V42.25M60.25 30.25V36.25M60.25 36.25H54.25M60.25 36.25H66.25M60.25 36.25V42.25M54.25 36.25H48.25V42.25M54.25 36.25V42.25M66.25 36.25H72.25M66.25 36.25V42.25M72.25 36.25H78.25M72.25 36.25V42.25M78.25 36.25H84.25M78.25 36.25V42.25M84.25 36.25H90.25V42.25H84.25V36.25ZM102.25 36.25H96.25M102.25 36.25V42.25H96.25V36.25M114.25 36.25H108.25M114.25 36.25V42.25M114.25 36.25H120.25M108.25 36.25V42.25H114.25M150.25 36.25H144.25M150.25 36.25V42.25H144.25M144.25 36.25H138.25M144.25 36.25V42.25M6.25 42.25H12.25M12.25 36.25V42.25M12.25 36.25H18.25M12.25 42.25H18.25M18.25 36.25V42.25M18.25 36.25H24.25M18.25 42.25H24.25M24.25 36.25V42.25M24.25 36.25H30.25M24.25 42.25H30.25M30.25 36.25V42.25M30.25 42.25H36.25M54.25 42.25H48.25M54.25 42.25V48.25M54.25 42.25H60.25M48.25 42.25V48.25H54.25M66.25 42.25H60.25M66.25 42.25V48.25M66.25 42.25H72.25M60.25 42.25V48.25M78.25 42.25H72.25M78.25 42.25V48.25M72.25 42.25V48.25M114.25 42.25H120.25M120.25 36.25V42.25M120.25 36.25H126.25M120.25 42.25H126.25M126.25 36.25V42.25M126.25 36.25H132.25M126.25 42.25H132.25M132.25 36.25V42.25M132.25 36.25H138.25M132.25 42.25H138.25M138.25 36.25V42.25M138.25 42.25H144.25M54.25 48.25H60.25M60.25 48.25H66.25M66.25 48.25H72.25M66.25 48.25V54.25H72.25M72.25 48.25H78.25M72.25 48.25V54.25M78.25 48.25V54.25M78.25 48.25H84.25M36.25 48.25H30.25V54.25M36.25 48.25V54.25M36.25 48.25H42.25V54.25M36.25 54.25H30.25M36.25 54.25H42.25M30.25 54.25H24.25M30.25 54.25V60.25M42.25 54.25H48.25V60.25M42.25 54.25V60.25M72.25 54.25H78.25M72.25 54.25V60.25M78.25 54.25H84.25M78.25 54.25V60.25M84.25 48.25V54.25M84.25 48.25H90.25V54.25M84.25 54.25H90.25M84.25 54.25V60.25M90.25 54.25V60.25M102.25 54.25V48.25H96.25V54.25M102.25 54.25H96.25M102.25 54.25V60.25M96.25 54.25V60.25M114.25 54.25V48.25H108.25V54.25M114.25 54.25H108.25M114.25 54.25V60.25M114.25 54.25H120.25M108.25 54.25V60.25M126.25 54.25V48.25H120.25V54.25M126.25 54.25H120.25M126.25 54.25H132.25M126.25 54.25V60.25M120.25 54.25V60.25M138.25 54.25V48.25H132.25V54.25M138.25 54.25H132.25M138.25 54.25V60.25M138.25 54.25H144.25M132.25 54.25V60.25M144.25 54.25H150.25V48.25H144.25V54.25ZM144.25 54.25V60.25M6.25 60.25V54.25H0.25V60.25H6.25ZM6.25 60.25H12.25M6.25 60.25V66.25H12.25M24.25 54.25H18.25V60.25M24.25 54.25V60.25M24.25 60.25H18.25M24.25 60.25H30.25M24.25 60.25V66.25M18.25 60.25H12.25M18.25 60.25V66.25M30.25 60.25H36.25M30.25 60.25V66.25H36.25M48.25 60.25H42.25M48.25 60.25V66.25H42.25M42.25 60.25H36.25M42.25 60.25V66.25M78.25 60.25H72.25M78.25 60.25H84.25M78.25 60.25V66.25H84.25M72.25 60.25H66.25M72.25 60.25V66.25H66.25M84.25 60.25H90.25M84.25 60.25V66.25M90.25 60.25V66.25M90.25 60.25H96.25M102.25 60.25H96.25M102.25 60.25V66.25M96.25 60.25V66.25M114.25 60.25H108.25M114.25 60.25H120.25M114.25 60.25V66.25M108.25 60.25V66.25M120.25 60.25H126.25M120.25 60.25V66.25M132.25 60.25H126.25M132.25 60.25H138.25M132.25 60.25V66.25M126.25 60.25V66.25M138.25 60.25H144.25M138.25 60.25V66.25M144.25 60.25V66.25M144.25 60.25H150.25V66.25M12.25 60.25V66.25M12.25 66.25H18.25M18.25 66.25H24.25M18.25 66.25V72.25M24.25 66.25V72.25H18.25M36.25 60.25V66.25M36.25 66.25H42.25M66.25 60.25H60.25V66.25H66.25M66.25 60.25V66.25M84.25 66.25H90.25M90.25 66.25H96.25M90.25 66.25V72.25M96.25 66.25H102.25M96.25 66.25V72.25M102.25 66.25H108.25M102.25 66.25V72.25M114.25 66.25H108.25M114.25 66.25V72.25M114.25 66.25H120.25M108.25 66.25V72.25M126.25 66.25H120.25M126.25 66.25H132.25M126.25 66.25V72.25M120.25 66.25V72.25M132.25 66.25V72.25M144.25 66.25H138.25M144.25 66.25H150.25M144.25 66.25V72.25M138.25 66.25V72.25H144.25M150.25 66.25V72.25M18.25 72.25H12.25M18.25 72.25V78.25M96.25 72.25H90.25M96.25 72.25V78.25H90.25M90.25 72.25H84.25V78.25M90.25 72.25V78.25M108.25 72.25H102.25M108.25 72.25H114.25M108.25 72.25V78.25M102.25 72.25V78.25M114.25 72.25H120.25M114.25 72.25V78.25M120.25 72.25H126.25M120.25 72.25V78.25M126.25 72.25H132.25M126.25 72.25V78.25M132.25 72.25V78.25H126.25M144.25 72.25H150.25M144.25 72.25V78.25H150.25V72.25M12.25 72.25H6.25V78.25M12.25 72.25V78.25M12.25 78.25H6.25M12.25 78.25H18.25M12.25 78.25V84.25M6.25 78.25H0.25V84.25M6.25 78.25V84.25M18.25 78.25H24.25V84.25M18.25 78.25V84.25M36.25 72.25H30.25V78.25H36.25M36.25 72.25V78.25M36.25 72.25H42.25M36.25 78.25H42.25M42.25 72.25V78.25M42.25 72.25H48.25V78.25M42.25 78.25H48.25M48.25 78.25H54.25M48.25 78.25V84.25M60.25 72.25H54.25V78.25M60.25 72.25V78.25M60.25 72.25H66.25M60.25 78.25H54.25M60.25 78.25H66.25M60.25 78.25V84.25M54.25 78.25V84.25M66.25 72.25V78.25M66.25 72.25H72.25V78.25H66.25M90.25 78.25H84.25M90.25 78.25V84.25M84.25 78.25V84.25H90.25M108.25 78.25H102.25M108.25 78.25H114.25M108.25 78.25V84.25M102.25 78.25V84.25M114.25 78.25H120.25M114.25 78.25V84.25M120.25 78.25H126.25M6.25 84.25H0.25M6.25 84.25H12.25M6.25 84.25V90.25M0.25 84.25V90.25M12.25 84.25H18.25M12.25 84.25V90.25H18.25M24.25 84.25H18.25M24.25 84.25V90.25M24.25 84.25H30.25V90.25M18.25 84.25V90.25M54.25 84.25H48.25M54.25 84.25H60.25M54.25 84.25V90.25M48.25 84.25H42.25M48.25 84.25V90.25M60.25 84.25V90.25M90.25 84.25H96.25M90.25 84.25V90.25H96.25M108.25 84.25H102.25M108.25 84.25H114.25M108.25 84.25V90.25H102.25M102.25 84.25H96.25M102.25 84.25V90.25M114.25 84.25H120.25M114.25 84.25V90.25H120.25M6.25 90.25H0.25M6.25 90.25V96.25M0.25 90.25V96.25M18.25 90.25H24.25M24.25 90.25H30.25M24.25 90.25V96.25H30.25M30.25 90.25V96.25M42.25 84.25H36.25V90.25H42.25M42.25 84.25V90.25M42.25 90.25H48.25M42.25 90.25V96.25M48.25 90.25H54.25M48.25 90.25V96.25M54.25 90.25H60.25M54.25 90.25V96.25M60.25 90.25H66.25M60.25 90.25V96.25M72.25 90.25V84.25H66.25V90.25M72.25 90.25H66.25M72.25 90.25H78.25M72.25 90.25V96.25M66.25 90.25V96.25M96.25 84.25V90.25M96.25 90.25H102.25M96.25 90.25V96.25M102.25 90.25V96.25M120.25 84.25V90.25M120.25 84.25H126.25V90.25M120.25 90.25H126.25M120.25 90.25V96.25M126.25 90.25V96.25M126.25 90.25H132.25M144.25 84.25H138.25V90.25M144.25 84.25V90.25M144.25 84.25H150.25V90.25M144.25 90.25H138.25M144.25 90.25H150.25M144.25 90.25V96.25M138.25 90.25H132.25M138.25 90.25V96.25M150.25 90.25V96.25H144.25M6.25 96.25H0.25M6.25 96.25V102.25H0.25V96.25M30.25 96.25H36.25M30.25 96.25V102.25H36.25M48.25 96.25H42.25M48.25 96.25H54.25M42.25 96.25H36.25M42.25 96.25V102.25H36.25M54.25 96.25H60.25M54.25 96.25V102.25M66.25 96.25H60.25M66.25 96.25H72.25M66.25 96.25V102.25M60.25 96.25V102.25M78.25 90.25V96.25M78.25 90.25H84.25V96.25M78.25 96.25H72.25M78.25 96.25H84.25M78.25 96.25V102.25M72.25 96.25V102.25M84.25 96.25V102.25M84.25 96.25H90.25M102.25 96.25H96.25M102.25 96.25V102.25M102.25 96.25H108.25M96.25 96.25H90.25M96.25 96.25V102.25M126.25 96.25H120.25M126.25 96.25H132.25M126.25 96.25V102.25M120.25 96.25H114.25M120.25 96.25V102.25M132.25 90.25V96.25M132.25 96.25H138.25M132.25 96.25V102.25M138.25 96.25H144.25M138.25 96.25V102.25M144.25 96.25V102.25H138.25M36.25 96.25V102.25M60.25 102.25H54.25M60.25 102.25V108.25M60.25 102.25H66.25M54.25 102.25H48.25V108.25H54.25M54.25 102.25V108.25M72.25 102.25H66.25M72.25 102.25V108.25M72.25 102.25H78.25M66.25 102.25V108.25M84.25 102.25H78.25M84.25 102.25H90.25M84.25 102.25V108.25M78.25 102.25V108.25M90.25 96.25V102.25M90.25 102.25H96.25M96.25 102.25H102.25M96.25 102.25V108.25M102.25 102.25H108.25M102.25 102.25V108.25M108.25 96.25V102.25M108.25 96.25H114.25M108.25 102.25H114.25M114.25 96.25V102.25M114.25 102.25H120.25M120.25 102.25H126.25M120.25 102.25V108.25M126.25 102.25H132.25M126.25 102.25V108.25M132.25 102.25H138.25M132.25 102.25V108.25M138.25 102.25V108.25M54.25 108.25H60.25M54.25 108.25V114.25M60.25 108.25H66.25M60.25 108.25V114.25H54.25M66.25 108.25H72.25M66.25 108.25V114.25M72.25 108.25H78.25M72.25 108.25V114.25M78.25 108.25H84.25M84.25 108.25H90.25M84.25 108.25V114.25M102.25 108.25H96.25M102.25 108.25V114.25M96.25 108.25H90.25M96.25 108.25V114.25M126.25 108.25H120.25M126.25 108.25H132.25M126.25 108.25V114.25M120.25 108.25V114.25M132.25 108.25H138.25M132.25 108.25V114.25M138.25 108.25V114.25H132.25M6.25 108.25H0.25V114.25M6.25 108.25V114.25M6.25 108.25H12.25M6.25 114.25H0.25M6.25 114.25H12.25M6.25 114.25V120.25M0.25 114.25V120.25M12.25 108.25V114.25M12.25 108.25H18.25M12.25 114.25H18.25M18.25 108.25V114.25M18.25 108.25H24.25M18.25 114.25H24.25M24.25 108.25V114.25M24.25 108.25H30.25M24.25 114.25H30.25M30.25 108.25V114.25M30.25 108.25H36.25M30.25 114.25H36.25M36.25 108.25V114.25M36.25 108.25H42.25V114.25M36.25 114.25H42.25M36.25 114.25V120.25M42.25 114.25V120.25M54.25 114.25H48.25V120.25H54.25V114.25ZM72.25 114.25H66.25M72.25 114.25V120.25M72.25 114.25H78.25V120.25M66.25 114.25V120.25M90.25 108.25V114.25M90.25 114.25H84.25M90.25 114.25H96.25M90.25 114.25V120.25M84.25 114.25V120.25M96.25 114.25H102.25M96.25 114.25V120.25M102.25 114.25V120.25M126.25 114.25H120.25M126.25 114.25H132.25M126.25 114.25V120.25M120.25 114.25V120.25M132.25 114.25V120.25M150.25 114.25V108.25H144.25V114.25M150.25 114.25H144.25M150.25 114.25V120.25H144.25V114.25M6.25 120.25H0.25M6.25 120.25V126.25M0.25 120.25V126.25M42.25 120.25H36.25M42.25 120.25V126.25M36.25 120.25V126.25M72.25 120.25H66.25M72.25 120.25H78.25M72.25 120.25V126.25M66.25 120.25H60.25V126.25M66.25 120.25V126.25M78.25 120.25V126.25H72.25M90.25 120.25H84.25M90.25 120.25H96.25M90.25 120.25V126.25M84.25 120.25V126.25M96.25 120.25H102.25M96.25 120.25V126.25H102.25M102.25 120.25V126.25M102.25 120.25H108.25M126.25 120.25H120.25M126.25 120.25H132.25M126.25 120.25V126.25M120.25 120.25H114.25M120.25 120.25V126.25M132.25 120.25V126.25M132.25 120.25H138.25V126.25M6.25 126.25H0.25M6.25 126.25V132.25M0.25 126.25V132.25M18.25 120.25H12.25V126.25M18.25 120.25V126.25M18.25 120.25H24.25M18.25 126.25H12.25M18.25 126.25H24.25M18.25 126.25V132.25M12.25 126.25V132.25M24.25 120.25V126.25M24.25 120.25H30.25V126.25M24.25 126.25H30.25M24.25 126.25V132.25M30.25 126.25V132.25M42.25 126.25H36.25M42.25 126.25V132.25M36.25 126.25V132.25M66.25 126.25H60.25M66.25 126.25H72.25M66.25 126.25V132.25H72.25M60.25 126.25H54.25V132.25H60.25V126.25ZM72.25 126.25V132.25M90.25 126.25H84.25M90.25 126.25V132.25H84.25V126.25M102.25 126.25H108.25M102.25 126.25V132.25M108.25 120.25V126.25M108.25 120.25H114.25M108.25 126.25H114.25M108.25 126.25V132.25M114.25 120.25V126.25M114.25 126.25H120.25M114.25 126.25V132.25M120.25 126.25H126.25M120.25 126.25V132.25M126.25 126.25H132.25M132.25 126.25H138.25M132.25 126.25V132.25H138.25V126.25M6.25 132.25H0.25M6.25 132.25V138.25M0.25 132.25V138.25M18.25 132.25H12.25M18.25 132.25H24.25M18.25 132.25V138.25M12.25 132.25V138.25H18.25M24.25 132.25H30.25M24.25 132.25V138.25M30.25 132.25V138.25H24.25M42.25 132.25H36.25M42.25 132.25V138.25M36.25 132.25V138.25M72.25 132.25H78.25V138.25M72.25 132.25V138.25M108.25 132.25H102.25M108.25 132.25H114.25M108.25 132.25V138.25M102.25 132.25H96.25V138.25M102.25 132.25V138.25H96.25M120.25 132.25H114.25M120.25 132.25V138.25M114.25 132.25V138.25M150.25 132.25V126.25H144.25V132.25M150.25 132.25H144.25M150.25 132.25V138.25M144.25 132.25V138.25M6.25 138.25H0.25M6.25 138.25V144.25M0.25 138.25V144.25M18.25 138.25H24.25M42.25 138.25H36.25M42.25 138.25V144.25M36.25 138.25V144.25M78.25 138.25H72.25M78.25 138.25V144.25M78.25 138.25H84.25V144.25H78.25M72.25 138.25V144.25H78.25M96.25 138.25H90.25V144.25M96.25 138.25V144.25M114.25 138.25H108.25M114.25 138.25H120.25M114.25 138.25V144.25M108.25 138.25V144.25M120.25 138.25H126.25M120.25 138.25V144.25M150.25 138.25H144.25M150.25 138.25V144.25M144.25 138.25V144.25M6.25 144.25H0.25M6.25 144.25V150.25M6.25 144.25H12.25M0.25 144.25V150.25H6.25M42.25 144.25H36.25M42.25 144.25V150.25H36.25M36.25 144.25H30.25M36.25 144.25V150.25M60.25 144.25V138.25H54.25V144.25H60.25ZM60.25 144.25H66.25V150.25H60.25V144.25ZM96.25 144.25H90.25M96.25 144.25V150.25M96.25 144.25H102.25V150.25H96.25M90.25 144.25V150.25H96.25M114.25 144.25H108.25M114.25 144.25V150.25M114.25 144.25H120.25M108.25 144.25V150.25H114.25M126.25 138.25V144.25M126.25 138.25H132.25V144.25M126.25 144.25H120.25M126.25 144.25H132.25M126.25 144.25V150.25M120.25 144.25V150.25M132.25 144.25V150.25H126.25M150.25 144.25H144.25M150.25 144.25V150.25H144.25V144.25M6.25 150.25H12.25M12.25 144.25V150.25M12.25 144.25H18.25M12.25 150.25H18.25M18.25 144.25V150.25M18.25 144.25H24.25M18.25 150.25H24.25M24.25 144.25V150.25M24.25 144.25H30.25M24.25 150.25H30.25M30.25 144.25V150.25M30.25 150.25H36.25M114.25 150.25H120.25M120.25 150.25H126.25M12.25 96.25H18.25V102.25H12.25V96.25ZM108.25 108.25H114.25V114.25H108.25V108.25Z" stroke="black" stroke-width="0.5"/>
</svg>
