<svg width="32" height="32" viewBox="0 0 32 32" fill="none" xmlns="http://www.w3.org/2000/svg">
<path fill-rule="evenodd" clip-rule="evenodd" d="M11.6386 11.6386C12.7953 10.4818 14.3641 9.832 16 9.832C17.6359 9.832 19.2047 10.4818 20.3614 11.6386C21.5182 12.7953 22.168 14.3641 22.168 16C22.168 17.6359 21.5182 19.2047 20.3614 20.3614C19.2047 21.5182 17.6359 22.168 16 22.168C14.3641 22.168 12.7953 21.5182 11.6386 20.3614C10.4818 19.2047 9.832 17.6359 9.832 16C9.832 14.3641 10.4818 12.7953 11.6386 11.6386ZM14.4677 19.6992C14.9535 19.9004 15.4742 20.004 16 20.004C17.0619 20.004 18.0804 19.5822 18.8313 18.8313C19.5821 18.0804 20.004 17.0619 20.004 16C20.004 14.9381 19.5821 13.9196 18.8313 13.1687C18.0804 12.4179 17.0619 11.996 16 11.996C15.4742 11.996 14.9535 12.0996 14.4677 12.3008C13.9819 12.502 13.5406 12.7969 13.1687 13.1687C12.7969 13.5406 12.502 13.982 12.3008 14.4677C12.0996 14.9535 11.996 15.4742 11.996 16C11.996 16.5258 12.0996 17.0465 12.3008 17.5323C12.502 18.0181 12.7969 18.4595 13.1687 18.8313C13.5406 19.2031 13.9819 19.498 14.4677 19.6992Z" fill="white"/>
<path d="M23.5354 10.751C23.8088 10.4775 23.9624 10.1067 23.9624 9.72C23.9624 9.33332 23.8088 8.96247 23.5354 8.68904C23.2619 8.41561 22.8911 8.262 22.5044 8.262C22.1177 8.262 21.7469 8.41561 21.4734 8.68904C21.2 8.96247 21.0464 9.33332 21.0464 9.72C21.0464 10.1067 21.2 10.4775 21.4734 10.751C21.7469 11.0244 22.1177 11.178 22.5044 11.178C22.8911 11.178 23.2619 11.0244 23.5354 10.751Z" fill="white"/>
<path fill-rule="evenodd" clip-rule="evenodd" d="M11.0528 4.072C12.3328 4.0136 12.7408 4 16 4C19.26 4 19.6672 4.0144 20.9464 4.072C22.224 4.1304 23.0976 4.3344 23.8608 4.6296C24.6612 4.93109 25.3863 5.40338 25.9856 6.0136C26.596 6.61306 27.0683 7.33845 27.3696 8.1392C27.6664 8.9024 27.8696 9.7752 27.928 11.0528C27.9864 12.3328 28 12.7408 28 16C28 19.2592 27.9864 19.6672 27.928 20.9472C27.8696 22.2248 27.6664 23.0976 27.3704 23.8608C27.0689 24.6612 26.5966 25.3863 25.9864 25.9856C25.3864 26.5968 24.6608 27.0688 23.8608 27.3696C23.0976 27.6664 22.2248 27.8696 20.9472 27.928C19.6672 27.9864 19.2592 28 16 28C12.7408 28 12.3328 27.9864 11.0528 27.928C9.7752 27.8696 8.9024 27.6664 8.1392 27.3704C7.33881 27.0689 6.61372 26.5966 6.0144 25.9864C5.4032 25.3864 4.9312 24.6608 4.6304 23.8608C4.3336 23.0976 4.1304 22.2248 4.072 20.9472C4.0136 19.6672 4 19.26 4 16C4 12.74 4.0144 12.3328 4.072 11.0536C4.1304 9.776 4.3344 8.9024 4.6296 8.1392C4.93109 7.3388 5.40338 6.61371 6.0136 6.0144C6.6136 5.4032 7.3392 4.9312 8.1392 4.6304C8.9024 4.3336 9.7752 4.1304 11.0528 4.072ZM20.8496 6.232C19.584 6.1744 19.204 6.1624 16 6.1624C12.796 6.1624 12.416 6.1744 11.1504 6.232C9.9808 6.2856 9.3456 6.4808 8.9224 6.6456C8.40113 6.83758 7.92955 7.14404 7.5424 7.5424C7.1232 7.9624 6.8624 8.3624 6.6456 8.9224C6.48 9.3456 6.2856 9.9808 6.232 11.1504C6.1744 12.416 6.1624 12.796 6.1624 16C6.1624 19.204 6.1744 19.584 6.232 20.8496C6.2856 22.0192 6.4808 22.6544 6.6456 23.0776C6.8377 23.5988 7.14414 24.0704 7.5424 24.4576C7.92961 24.8559 8.40116 25.1623 8.9224 25.3544C9.3456 25.52 9.9808 25.7144 11.1504 25.768C12.416 25.8256 12.7952 25.8376 16 25.8376C19.2048 25.8376 19.584 25.8256 20.8496 25.768C22.0192 25.7144 22.6544 25.5192 23.0776 25.3544C23.5989 25.1624 24.0705 24.856 24.4576 24.4576C24.8559 24.0704 25.1623 23.5988 25.3544 23.0776C25.52 22.6544 25.7144 22.0192 25.768 20.8496C25.8256 19.584 25.8376 19.204 25.8376 16C25.8376 12.796 25.8256 12.416 25.768 11.1504C25.7144 9.9808 25.5192 9.3456 25.3544 8.9224C25.1376 8.3624 24.8776 7.9624 24.4576 7.5424C24.0376 7.1232 23.6376 6.8624 23.0776 6.6456C22.6544 6.48 22.0192 6.2856 20.8496 6.232Z" fill="white"/>
</svg>
