<svg width="44" height="44" viewBox="0 0 44 44" fill="none" xmlns="http://www.w3.org/2000/svg">
<circle cx="22" cy="22" r="21.5" fill="white" stroke="white"/>
<path d="M21.2929 12.2929C21.6834 11.9024 22.3166 11.9024 22.7071 12.2929L29.0711 18.6569C29.4616 19.0474 29.4616 19.6805 29.0711 20.0711C28.6805 20.4616 28.0474 20.4616 27.6569 20.0711L22 14.4142L16.3431 20.0711C15.9526 20.4616 15.3195 20.4616 14.9289 20.0711C14.5384 19.6805 14.5384 19.0474 14.9289 18.6569L21.2929 12.2929ZM21 31L21 22L23 22L23 31L21 31ZM21 22L21 13L23 13L23 22L21 22Z" fill="black"/>
</svg>
