<svg width="44" height="44" viewBox="0 0 44 44" fill="none" xmlns="http://www.w3.org/2000/svg">
<path d="M22.0692 6.03223C13.0123 6.03223 5.64158 13.1315 5.63839 21.8563C5.63626 24.6464 6.39419 27.3694 7.83129 29.7677L5.5 37.9677L14.2109 35.7674C16.634 37.0349 19.3282 37.696 22.0628 37.6941H22.0692C31.1261 37.6941 38.4968 30.5938 38.5 21.869C38.5021 17.6429 36.7946 13.6648 33.6916 10.6746C30.5896 7.68329 26.4646 6.03329 22.0692 6.03223ZM22.0692 35.0211H22.0639C19.6134 35.0211 17.2097 34.3867 15.1126 33.188L14.6123 32.9027L9.4451 34.2078L10.8247 29.3536L10.5 28.8565C9.13628 26.7766 8.41032 24.3434 8.41145 21.8563C8.41464 14.6037 14.542 8.70523 22.0745 8.70523C25.7215 8.70629 29.1504 10.0763 31.7297 12.562C34.309 15.0476 35.728 18.3529 35.7259 21.868C35.7227 29.1205 29.5964 35.0211 22.0681 35.0211H22.0692ZM29.5602 25.169C29.1493 24.9721 27.131 24.0151 26.7541 23.882C26.3784 23.7511 26.1048 23.683 25.8312 24.079C25.5587 24.475 24.7709 25.366 24.5325 25.6289C24.2919 25.8929 24.0524 25.9248 23.6415 25.7279C23.2306 25.5299 21.9074 25.1126 20.3404 23.7649C19.1194 22.7175 18.2955 21.423 18.056 21.0259C17.8165 20.631 18.0304 20.417 18.2359 20.2201C18.42 20.0445 18.6468 19.7592 18.8512 19.5282C19.0555 19.2972 19.1237 19.1322 19.2621 18.8682C19.3983 18.6052 19.3302 18.3732 19.2269 18.1762C19.1237 17.9772 18.304 16.0312 17.9602 15.2403C17.628 14.4696 17.2895 14.5728 17.0372 14.5601C16.7977 14.5494 16.5252 14.5462 16.2495 14.5462C15.978 14.5462 15.532 14.6452 15.1552 15.0412C14.7794 15.4372 13.7181 16.3932 13.7181 18.3391C13.7181 20.2861 15.1892 22.166 15.3947 22.43C15.6001 22.693 18.2902 26.6881 22.4088 28.402C23.3881 28.8076 24.1525 29.0513 24.7496 29.2344C25.7333 29.5357 26.6285 29.492 27.3354 29.3909C28.1231 29.277 29.7646 28.435 30.1052 27.512C30.448 26.5891 30.448 25.7971 30.3458 25.6321C30.2457 25.4671 29.9711 25.3681 29.5602 25.169Z" fill="white"/>
</svg>
