<svg width="44" height="44" viewBox="0 0 44 44" fill="none" xmlns="http://www.w3.org/2000/svg">
<path fill-rule="evenodd" clip-rule="evenodd" d="M36.2855 9.92702C37.8623 10.3506 39.1096 11.598 39.5332 13.1748C40.3099 16.046 40.3334 22.0002 40.3334 22.0002C40.3334 22.0002 40.3334 27.9779 39.5568 30.8256C39.1332 32.4024 37.8858 33.6497 36.309 34.0734C33.4614 34.85 22.0001 34.85 22.0001 34.85C22.0001 34.85 10.5388 34.85 7.69114 34.0734C6.11433 33.6497 4.86701 32.4024 4.44339 30.8256C3.66675 27.9544 3.66675 22.0002 3.66675 22.0002C3.66675 22.0002 3.66675 16.046 4.41985 13.1983C4.84347 11.6215 6.0908 10.3742 7.6676 9.95057C10.5153 9.17392 21.9765 9.15039 21.9765 9.15039C21.9765 9.15039 33.4378 9.15039 36.2855 9.92702ZM27.8366 22.0002L18.3287 27.5073V16.4931L27.8366 22.0002Z" fill="white"/>
</svg>
