<svg width="44" height="44" viewBox="0 0 44 44" fill="none" xmlns="http://www.w3.org/2000/svg">
<path fill-rule="evenodd" clip-rule="evenodd" d="M16.003 16.003C17.5935 14.4125 19.7507 13.519 22 13.519C24.2493 13.519 26.4065 14.4125 27.997 16.003C29.5875 17.5935 30.481 19.7507 30.481 22C30.481 24.2493 29.5875 26.4065 27.997 27.997C26.4065 29.5875 24.2493 30.481 22 30.481C19.7507 30.481 17.5935 29.5875 16.003 27.997C14.4125 26.4065 13.519 24.2493 13.519 22C13.519 19.7507 14.4125 17.5935 16.003 16.003ZM19.8931 27.0864C20.5611 27.3631 21.277 27.5055 22 27.5055C23.4601 27.5055 24.8605 26.9255 25.893 25.893C26.9255 24.8605 27.5055 23.4602 27.5055 22C27.5055 20.5399 26.9255 19.1395 25.893 18.107C24.8605 17.0745 23.4601 16.4945 22 16.4945C21.277 16.4945 20.5611 16.6369 19.8931 16.9136C19.2252 17.1903 18.6183 17.5958 18.107 18.107C17.5958 18.6183 17.1903 19.2252 16.9136 19.8931C16.6369 20.5611 16.4945 21.277 16.4945 22C16.4945 22.723 16.6369 23.4389 16.9136 24.1069C17.1903 24.7748 17.5958 25.3817 18.107 25.893C18.6183 26.4042 19.2252 26.8097 19.8931 27.0864Z" fill="white"/>
<path d="M32.3611 14.7826C32.7371 14.4066 32.9483 13.8967 32.9483 13.365C32.9483 12.8333 32.7371 12.3234 32.3611 11.9474C31.9852 11.5715 31.4752 11.3603 30.9435 11.3603C30.4119 11.3603 29.9019 11.5715 29.526 11.9474C29.15 12.3234 28.9388 12.8333 28.9388 13.365C28.9388 13.8967 29.15 14.4066 29.526 14.7826C29.9019 15.1585 30.4119 15.3698 30.9435 15.3698C31.4752 15.3698 31.9852 15.1585 32.3611 14.7826Z" fill="white"/>
<path fill-rule="evenodd" clip-rule="evenodd" d="M15.1976 5.599C16.9576 5.5187 17.5186 5.5 22 5.5C26.4825 5.5 27.0424 5.5198 28.8013 5.599C30.558 5.6793 31.7592 5.9598 32.8086 6.3657C33.9092 6.78024 34.9062 7.42964 35.7302 8.2687C36.5695 9.09295 37.219 10.0904 37.6332 11.1914C38.0413 12.2408 38.3207 13.4409 38.401 15.1976C38.4813 16.9576 38.5 17.5186 38.5 22C38.5 26.4814 38.4813 27.0424 38.401 28.8024C38.3207 30.5591 38.0413 31.7592 37.6343 32.8086C37.2198 33.9092 36.5704 34.9062 35.7313 35.7302C34.9063 36.5706 33.9086 37.2196 32.8086 37.6332C31.7592 38.0413 30.5591 38.3207 28.8024 38.401C27.0424 38.4813 26.4814 38.5 22 38.5C17.5186 38.5 16.9576 38.4813 15.1976 38.401C13.4409 38.3207 12.2408 38.0413 11.1914 37.6343C10.0909 37.2197 9.09387 36.5703 8.2698 35.7313C7.4294 34.9063 6.7804 33.9086 6.3668 32.8086C5.9587 31.7592 5.6793 30.5591 5.599 28.8024C5.5187 27.0424 5.5 26.4825 5.5 22C5.5 17.5175 5.5198 16.9576 5.599 15.1987C5.6793 13.442 5.9598 12.2408 6.3657 11.1914C6.78024 10.0908 7.42964 9.09385 8.2687 8.2698C9.0937 7.4294 10.0914 6.7804 11.1914 6.3668C12.2408 5.9587 13.4409 5.6793 15.1976 5.599ZM28.6682 8.569C26.928 8.4898 26.4055 8.4733 22 8.4733C17.5945 8.4733 17.072 8.4898 15.3318 8.569C13.7236 8.6427 12.8502 8.9111 12.2683 9.1377C11.5516 9.40167 10.9031 9.82305 10.3708 10.3708C9.7944 10.9483 9.4358 11.4983 9.1377 12.2683C8.91 12.8502 8.6427 13.7236 8.569 15.3318C8.4898 17.072 8.4733 17.5945 8.4733 22C8.4733 26.4055 8.4898 26.928 8.569 28.6682C8.6427 30.2764 8.9111 31.1498 9.1377 31.7317C9.40184 32.4484 9.82319 33.0968 10.3708 33.6292C10.9032 34.1769 11.5516 34.5982 12.2683 34.8623C12.8502 35.09 13.7236 35.3573 15.3318 35.431C17.072 35.5102 17.5934 35.5267 22 35.5267C26.4066 35.5267 26.928 35.5102 28.6682 35.431C30.2764 35.3573 31.1498 35.0889 31.7317 34.8623C32.4485 34.5984 33.0969 34.177 33.6292 33.6292C34.1769 33.0968 34.5982 32.4484 34.8623 31.7317C35.09 31.1498 35.3573 30.2764 35.431 28.6682C35.5102 26.928 35.5267 26.4055 35.5267 22C35.5267 17.5945 35.5102 17.072 35.431 15.3318C35.3573 13.7236 35.0889 12.8502 34.8623 12.2683C34.5642 11.4983 34.2067 10.9483 33.6292 10.3708C33.0517 9.7944 32.5017 9.4358 31.7317 9.1377C31.1498 8.91 30.2764 8.6427 28.6682 8.569Z" fill="white"/>
</svg>
